Coordinates
version=1
nRows=17
nColumns=24
inDegrees=yes

Units are S.I. units (second, meters, Newtons, ...)
Angles are in degrees.

endheader
time	pelvis_tilt	pelvis_list	pelvis_rotation	pelvis_tx	pelvis_ty	pelvis_tz	hip_flexion_r	hip_adduction_r	hip_rotation_r	knee_angle_r	ankle_angle_r	subtalar_angle_r	mtp_angle_r	hip_flexion_l	hip_adduction_l	hip_rotation_l	knee_angle_l	ankle_angle_l	subtalar_angle_l	mtp_angle_l	lumbar_extension	lumbar_bending	lumbar_rotation
      1.26000000	     14.50540466	      0.10623062	     -1.70623976	     -0.64343609	      0.93848375	      0.01463288	    -31.74966183	      1.45580590	     -9.70517006	     -9.07581686	     25.48052868	     -1.76927538	     18.58087031	     -1.41286806	      3.35353852	    -16.94152326	      8.99514664	      2.80530235	    -10.22326516	    112.55917335	    -21.82998576	     -1.14857000	      5.09450703
      1.26500000	     14.58231798	      0.35990950	     -1.95178933	     -0.63725048	      0.93809361	      0.01466365	    -32.06276516	      1.01905379	     -9.60850145	     -9.40258987	     25.41253696	     -1.68253159	     18.83177739	     -1.38937690	      3.56878474	    -16.74627168	      8.33867099	      2.38116394	    -10.96987977	    112.41620659	    -21.86406902	     -1.58355256	      5.19883866
      1.27000000	     14.62999240	      0.63063810	     -2.23253634	     -0.63107563	      0.93776126	      0.01473665	    -32.29211452	      0.54217751	     -9.45148668	     -9.81979848	     25.35340249	     -1.63367990	     19.07797937	     -1.30982691	      3.79671494	    -16.68048985	      7.58882103	      1.87713289	    -11.58038604	    112.28775418	    -21.86623912	     -2.04862391	      5.33608978
      1.27500000	     14.68186296	      0.92476751	     -2.40287984	     -0.62490874	      0.93747243	      0.01461546	    -32.51692344	      0.09231248	     -9.41443791	    -10.25499381	     25.15380321	     -1.56767591	     19.81818390	     -1.23382483	      4.03786511	    -16.23414304	      6.79527217	      1.34442883	    -12.73848532	    111.88212965	    -21.87695505	     -2.50183937	      5.32111543
      1.28000000	     14.67483401	      1.24173230	     -2.54623686	     -0.61876487	      0.93721496	      0.01445600	    -32.63241617	     -0.36241775	     -9.36067740	    -10.76559659	     24.89224982	     -1.69505592	     21.13646153	     -1.06305044	      4.29524245	    -15.85517528	      5.91687890	      0.72458442	    -13.66276537	    111.22414820	    -21.82753427	     -2.97177232	      5.28922667
      1.28500000	     14.67915960	      1.55809662	     -2.73182827	     -0.61261834	      0.93706369	      0.01432020	    -32.70966480	     -0.85059806	     -9.25556131	    -11.36462459	     24.63088938	     -1.74572001	     22.26425130	     -0.88689203	      4.55476298	    -15.60558526	      4.96853810	      0.23273126	    -14.48294993	    110.78986938	    -21.78712599	     -3.45414814	      5.32892475
      1.29000000	     14.66836211	      1.86793374	     -2.91728249	     -0.60649734	      0.93697766	      0.01413738	    -32.70928746	     -1.34115607	     -9.08845487	    -12.07251027	     24.34510233	     -1.79564145	     23.13493134	     -0.68974718	      4.81157966	    -15.39274552	      3.99273322	     -0.19361610	    -15.26915491	    110.53326055	    -21.73488090	     -3.92282065	      5.31946948
      1.29500000	     14.61670281	      2.21078510	     -2.96001618	     -0.60037565	      0.93690964	      0.01374584	    -32.63960477	     -1.78749407	     -9.07843662	    -12.83738237	     23.91723840	     -2.02341776	     24.65824116	     -0.44693118	      5.09736774	    -14.94447352	      3.00047947	     -0.66021515	    -16.08647664	    110.14339597	    -21.64722395	     -4.38159522	      5.18325380
      1.30000000	     14.54199028	      2.52354031	     -3.04257495	     -0.59429824	      0.93689173	      0.01336440	    -32.46336621	     -2.23882982	     -8.97409185	    -13.74378757	     23.51333589	     -2.18977359	     26.02643815	     -0.16212840	      5.35506641	    -14.63929411	      1.95519635	     -0.96149853	    -16.77157608	    109.90019688	    -21.53607810	     -4.81639205	      5.12349163
      1.30500000	     14.46661916	      2.81328435	     -3.15376826	     -0.58825564	      0.93696058	      0.01297972	    -32.20951555	     -2.69428617	     -8.77846576	    -14.78079649	     23.11798497	     -2.28386615	     26.92687706	      0.12129165	      5.59766287	    -14.47724748	      0.90151679	     -1.17503790	    -17.35169032	    109.80318093	    -21.43071888	     -5.22950465	      5.05452580
      1.31000000	     14.37287899	      3.13072524	     -3.08340094	     -0.58219453	      0.93706109	      0.01231106	    -31.92402050	     -3.08013270	     -8.77268126	    -15.85289187	     22.44698909	     -2.69086015	     29.14946513	      0.38791093	      5.88115183	    -13.96943585	     -0.09088277	     -1.43401986	    -18.06300109	    109.60205998	    -21.31802054	     -5.61190942	      4.80979158
      1.31500000	     14.28808729	      3.41232408	     -3.16771582	     -0.57614099	      0.93724127	      0.01179268	    -31.52410501	     -3.53558773	     -8.59295714	    -17.12332662	     21.78056802	     -2.96099708	     31.36366053	      0.62257674	      6.13929744	    -13.80839002	     -1.05977719	     -1.46584324	    -18.49734387	    109.51534947	    -21.20225956	     -5.99926895	      4.77406760
      1.32000000	     14.14722321	      3.67364724	     -3.15439229	     -0.57014283	      0.93739314	      0.01109196	    -30.99785450	     -3.93026002	     -8.46571009	    -18.52483941	     21.11165324	     -3.22893693	     33.03878643	      0.90942219	      6.38293478	    -13.52564682	     -2.01661265	     -1.44616324	    -18.96671005	    109.55264704	    -21.04108178	     -6.32565880	      4.63492431
      1.32500000	     13.93403388	      3.89014288	     -3.12535987	     -0.56422945	      0.93750098	      0.01034850	    -30.29169053	     -4.28634408	     -8.29823176	    -20.10755744	     20.50327894	     -3.36187289	     33.68526001	      1.29052949	      6.57426806	    -13.33768685	     -3.01827725	     -1.23023351	    -19.22418636	    109.59954943	    -20.81336707	     -6.59302734	      4.49334693
      1.33000000	     13.78441418	      4.12946149	     -3.08451637	     -0.55827624	      0.93773960	      0.00952132	    -29.61332757	     -4.66623493	     -8.16136047	    -21.72372050	     19.52266010	     -3.84707035	     36.84427445	      1.50739655	      6.82616557	    -13.06290049	     -3.82920735	     -1.16701611	    -19.66642699	    109.73502690	    -20.65104482	     -6.87616905	      4.33920868
      1.33500000	     13.52931876	      4.31140795	     -3.05215924	     -0.55242310	      0.93784858	      0.00868645	    -28.69972148	     -5.01037186	     -7.95272863	    -23.56246448	     18.73237657	     -3.99521700	     37.51014991	      1.85960244	      7.00473094	    -12.91956806	     -4.69838427	     -0.80044805	    -19.79704860	    109.80578704	    -20.38222267	     -7.09323249	      4.22512970
      1.34000000	     13.32169704	      4.50842772	     -3.00984502	     -0.54659123	      0.93806141	      0.00778600	    -27.78578986	     -5.37071144	     -7.76768898	    -25.44103956	     17.59024946	     -4.48856637	     40.59061040	      2.09145169	      7.22724602	    -12.75158923	     -5.41963833	     -0.60297299	    -20.07535013	    110.04998937	    -20.17040637	     -7.31793531	      4.08867004
